<svg width="512" height="512" viewBox="0 0 512 512" fill="none" xmlns="http://www.w3.org/2000/svg">
  <!-- Background -->
  <rect width="512" height="512" rx="64" fill="url(#gradient)" />
  
  <!-- Shield Shape -->
  <path d="M256 64L128 128V256C128 320 192 384 256 448C320 384 384 320 384 256V128L256 64Z" fill="#dc2626" stroke="#ffffff" stroke-width="8"/>
  
  <!-- Inner Shield Design -->
  <path d="M256 96L160 144V240C160 288 208 336 256 384C304 336 352 288 352 240V144L256 96Z" fill="#ffffff" fill-opacity="0.1"/>
  
  <!-- Lock Icon -->
  <rect x="216" y="200" width="80" height="96" rx="8" fill="#ffffff"/>
  <path d="M240 200V184C240 166.3 254.3 152 272 152H272C289.7 152 304 166.3 304 184V200" stroke="#dc2626" stroke-width="8" fill="none"/>
  <circle cx="256" cy="240" r="8" fill="#dc2626"/>
  <rect x="252" y="248" width="8" height="24" fill="#dc2626"/>
  
  <!-- Decorative Elements -->
  <circle cx="200" cy="160" r="4" fill="#ffffff" fill-opacity="0.6"/>
  <circle cx="312" cy="160" r="4" fill="#ffffff" fill-opacity="0.6"/>
  <circle cx="180" cy="200" r="3" fill="#ffffff" fill-opacity="0.4"/>
  <circle cx="332" cy="200" r="3" fill="#ffffff" fill-opacity="0.4"/>
  
  <!-- Gradient Definition -->
  <defs>
    <linearGradient id="gradient" x1="0%" y1="0%" x2="100%" y2="100%">
      <stop offset="0%" style="stop-color:#000000"/>
      <stop offset="50%" style="stop-color:#1f2937"/>
      <stop offset="100%" style="stop-color:#7f1d1d"/>
    </linearGradient>
  </defs>
</svg>